<svg xmlns="http://www.w3.org/2000/svg" viewBox="0 0 1200 700" role="img" aria-label="Porta-incenso de folha em argila fria sobre mesa clara">
  <defs>
    <linearGradient id="bg" x1="0" y1="0" x2="1" y2="1">
      <stop offset="0%" stop-color="#fbf6ef" />
      <stop offset="100%" stop-color="#f1e6d9" />
    </linearGradient>
    <linearGradient id="leaf" x1="0" y1="0" x2="1" y2="1">
      <stop offset="0%" stop-color="#7fb77b" />
      <stop offset="100%" stop-color="#4f8f5f" />
    </linearGradient>
    <filter id="shadow" x="-20%" y="-20%" width="140%" height="140%">
      <feDropShadow dx="0" dy="14" stdDeviation="14" flood-color="#7f6f60" flood-opacity="0.28" />
    </filter>
  </defs>

  <rect width="1200" height="700" fill="url(#bg)" />
  <ellipse cx="600" cy="610" rx="420" ry="70" fill="#b9a58e" opacity="0.22" />

  <g transform="translate(230 90)" filter="url(#shadow)">
    <path d="M370 40c144 64 255 184 289 314c24 94-22 172-130 216c-112 45-255 19-363-63C65 430 35 318 80 230c53-105 170-186 290-190z" fill="url(#leaf)" />
    <path d="M98 246c155 44 306 46 452-3" stroke="#dcefcf" stroke-width="16" stroke-linecap="round" fill="none" opacity="0.78" />
    <path d="M235 176c96 88 143 194 150 316" stroke="#dcefcf" stroke-width="11" stroke-linecap="round" fill="none" opacity="0.7" />
    <circle cx="444" cy="245" r="9" fill="#2d4833" />
    <rect x="442" y="245" width="214" height="7" rx="3.5" fill="#4f3a2f" transform="rotate(-8 442 245)" />
    <rect x="650" y="222" width="18" height="42" rx="8" fill="#b74f37" transform="rotate(-8 650 222)" />
    <path d="M661 201c18 4 31 22 28 40c-22-7-36-24-28-40z" fill="#e6e1da" opacity="0.85" />
  </g>

  <text x="68" y="640" font-family="Manrope, Arial, sans-serif" font-size="36" fill="#5f584e">Porta-incenso de folha em argila fria</text>
</svg>
